<svg id="Layer_1" data-name="Layer 1" xmlns="http://www.w3.org/2000/svg" viewBox="0 0 1787.743 1974.331"><defs><style>.cls-1{fill:#6A51F8;fill-rule:evenodd;}</style></defs><title>362b0537-9ad5-4231-aa6d-23634a4f257d [Converted]</title><path class="cls-1" d="M3893.871,2100.153v-39.669L3000,1654.049l-893.871,406.435v39.669A1787.491,1787.491,0,0,0,3000,3628.38a1787.489,1787.489,0,0,0,893.871-1528.227m-1619.253,66.415L3000,1836.744l725.382,329.824A1621.261,1621.261,0,0,1,3000,3432.967,1621.261,1621.261,0,0,1,2274.618,2166.568Z" transform="translate(-2106.129 -1654.049)"/><polygon class="cls-1" points="256.796 525.355 893.871 815.026 1530.946 525.355 893.871 235.683 256.796 525.355"/><path class="cls-1" d="M2975.133,2512.4l-648.58-294.9a1573.116,1573.116,0,0,0,648.58,1139.712V2512.4Z" transform="translate(-2106.129 -1654.049)"/><path class="cls-1" d="M3024.867,2512.4v844.808A1573.113,1573.113,0,0,0,3673.447,2217.5Z" transform="translate(-2106.129 -1654.049)"/></svg>